<?xml version="1.0" encoding="utf-8"?>
<!-- Generator: Adobe Illustrator 15.1.0, SVG Export Plug-In . SVG Version: 6.00 Build 0)  -->
<!DOCTYPE svg PUBLIC "-//W3C//DTD SVG 1.1//EN" "http://www.w3.org/Graphics/SVG/1.1/DTD/svg11.dtd">
<svg version="1.1" id="Layer_1" xmlns="http://www.w3.org/2000/svg" xmlns:xlink="http://www.w3.org/1999/xlink" x="0px" y="0px"
	 width="28.656px" height="100px" viewBox="0 0 28.656 100" enable-background="new 0 0 28.656 100" xml:space="preserve">
<path fill="#010101" d="M18.893,0.719c-0.113,0.286-2.106,0.516-4.566,0.516c-2.463,0-4.455-0.231-4.563-0.517
	C9.752,0.739,9.741,0.759,9.741,0.796v6.441c0,0.216,0.176,0.391,0.391,0.391h0.159h8.072h0.16c0.215,0,0.391-0.175,0.391-0.391
	V0.796C18.914,0.759,18.903,0.739,18.893,0.719z"/>
<ellipse fill="#010101" cx="14.327" cy="0.53" rx="4.495" ry="0.53"/>
<path fill="#010101" d="M28.646,93.919V43.501c0-5.95-2.566-11.186-6.452-14.23c-0.406-0.607-3.173-4.997-3.831-13.074
	c0-1.767,0-5.309,0-8.21h-8.07c0,2.901,0,6.443,0,8.21c-0.659,8.078-3.424,12.467-3.831,13.074c-3.886,3.045-6.45,8.28-6.45,14.23
	v50.418c-0.026,0.142,0,0.29,0,0.436c0,3.121,6.384,5.645,14.317,5.645s14.313-2.523,14.313-5.645
	C28.641,94.209,28.672,94.06,28.646,93.919z M27.309,72.744v0.002c-0.005,1.506-5.815,2.723-12.981,2.723
	c-7.168,0-12.979-1.218-12.983-2.723l0,0v-0.002V49.691c0,1.505,5.813,2.442,12.984,2.442c7.169,0,12.981-0.937,12.981-2.442
	L27.309,72.744L27.309,72.744z"/>
</svg>
