<?xml version="1.0" encoding="utf-8"?>
<!-- Generator: Adobe Illustrator 16.0.4, SVG Export Plug-In . SVG Version: 6.00 Build 0)  -->
<!DOCTYPE svg PUBLIC "-//W3C//DTD SVG 1.1//EN" "http://www.w3.org/Graphics/SVG/1.1/DTD/svg11.dtd">
<svg version="1.1" xmlns="http://www.w3.org/2000/svg" xmlns:xlink="http://www.w3.org/1999/xlink" x="0px" y="0px" width="79.2px"
	 height="46.8px" viewBox="0 0 79.2 46.8" enable-background="new 0 0 79.2 46.8" xml:space="preserve">
<g id="Layer_1">
</g>
<g id="Layer_3">
</g>
<g id="Layer_4">
	<g>
		<path fill="none" stroke="#000000" stroke-width="0.5" stroke-miterlimit="10" d="M37.766,11.144
			c-1.553,3.898-3.444,9.653-2.24,12.888c1.677,4.506,4.346,4.863,4.005,6.797c-0.374,2.121-2.26,12.819-2.26,12.819
			s-3.61,0.161-4.321,0.836c-0.883,0.839,2.282,1.451,4.377,1.451c2.129,0,5.486-0.593,4.885-1.451
			c-0.473-0.675-4.027-0.836-4.027-0.836s1.888-10.698,2.262-12.819c0.342-1.934,3.135-2.291,6.404-6.797
			c3.27-4.509,2.248-13.915,2.06-16.362"/>
	</g>
	<g>
		<rect y="0.866" fill="none" width="89.5" height="35"/>
		<path d="M2.637,20.255c0.094,1.523,0.531,2.707,1.311,3.551s1.713,1.266,2.803,1.266c0.902,0,1.641-0.275,2.215-0.826
			s0.861-1.248,0.861-2.092c0-0.75-0.217-1.383-0.65-1.898c-0.445-0.504-1.318-1.166-2.619-1.986
			c-0.926-0.586-1.77-1.134-2.531-1.644s-1.289-1.028-1.582-1.556c-0.305-0.527-0.457-1.066-0.457-1.617
			c0-1.137,0.525-2.15,1.574-3.041S6,9.076,7.734,9.076c1.066,0,2.215,0.234,3.445,0.703v4.605H9.914
			c-0.012-1.301-0.375-2.344-1.09-3.129s-1.535-1.178-2.461-1.178c-0.656,0-1.168,0.208-1.537,0.624s-0.555,0.905-0.555,1.468
			c0,0.633,0.211,1.178,0.633,1.635c0.41,0.469,1.236,1.09,2.479,1.863c2.133,1.348,3.469,2.297,4.008,2.848
			c0.539,0.562,0.809,1.307,0.809,2.232c0,1.465-0.646,2.736-1.941,3.814s-2.787,1.617-4.475,1.617
			c-1.254,0-2.701-0.352-4.342-1.055v-4.869H2.637z"/>
		<path d="M19.967,0.779v0.756c-0.48,0.188-0.721,0.609-0.721,1.266v12.094c1.371-1.945,2.672-3.404,3.902-4.377
			s2.391-1.459,3.48-1.459c0.902,0,1.605,0.322,2.109,0.967c0.504,0.656,0.756,1.617,0.756,2.883v9.176
			c0,1.008,0.202,1.711,0.606,2.109s1.099,0.609,2.083,0.633v0.844h-6.152v-0.844c0.516-0.023,0.773-0.34,0.773-0.949V13.382
			c0-0.762-0.154-1.333-0.464-1.714s-0.772-0.571-1.392-0.571c-1.446,0-2.791,1.064-4.033,3.191s-1.863,4.457-1.863,6.989
			c0,2.368,0.717,3.55,2.148,3.548H21.9v0.844h-7.998v-0.844c0.902-0.023,1.57-0.223,2.004-0.598s0.65-1.09,0.65-2.145V4.734
			c0-0.691-0.39-1.037-1.168-1.037c-0.437,0-0.938,0.111-1.504,0.334V3.187L19.967,0.779z"/>
		<path d="M51.477,10.957L56.1,9.076h0.773v5.713c1.207-2.062,2.285-3.524,3.234-4.386s1.922-1.292,2.918-1.292
			c0.387,0,0.85,0.088,1.389,0.264v5.414h-1.248c-0.012-2.121-0.627-3.182-1.846-3.182c-1.207,0-2.282,0.987-3.226,2.962
			s-1.415,4.21-1.415,6.706c0,1.477,0.272,2.438,0.817,2.883s1.585,0.668,3.12,0.668v0.844h-9.141v-0.844
			c0.961-0.023,1.652-0.231,2.074-0.624s0.633-1.099,0.633-2.118V12.96c0-1.031-0.381-1.547-1.143-1.547
			c-0.316,0-0.838,0.129-1.564,0.387V10.957z"/>
	</g>
	<g>
		<rect x="44.75" y="31.911" fill="none" width="44.5" height="14.024"/>
		<path fill="#4F0000" d="M44.928,35.295h2.182v0.328c-0.178,0.004-0.268,0.076-0.268,0.213c0,0.064,0.016,0.142,0.049,0.234
			l1.465,4.252l0.78-1.869c0.328-0.793,0.492-1.46,0.492-2.003c0-0.538-0.323-0.813-0.971-0.827v-0.328h2.222v0.328
			c-0.195,0-0.293,0.066-0.293,0.198c0,0.064,0.021,0.16,0.068,0.287l1.457,4.207l0.85-2.067c0.301-0.729,0.451-1.337,0.453-1.825
			c0-0.26-0.076-0.458-0.227-0.595c-0.151-0.137-0.409-0.205-0.773-0.205v-0.328h2.932v0.328c-0.303,0.045-0.568,0.208-0.796,0.489
			s-0.489,0.773-0.782,1.48l-1.791,4.279h-0.41l-1.46-4.211c-0.214,0.401-0.38,0.725-0.499,0.971l-0.24,0.492
			c-0.092,0.173-0.169,0.342-0.232,0.506l-0.918,2.242h-0.41l-1.572-4.56c-0.224-0.661-0.432-1.104-0.626-1.33
			s-0.421-0.345-0.681-0.359V35.295z"/>
		<path fill="#4F0000" d="M55.654,41.229c0.351-0.009,0.612-0.085,0.785-0.229c0.174-0.144,0.26-0.423,0.26-0.837v-3.739
			c0-0.287-0.164-0.431-0.492-0.431c-0.118,0-0.248,0.03-0.389,0.089c-0.073,0.032-0.128,0.052-0.164,0.062v-0.349l1.756-0.69h0.336
			v5.059c0,0.406,0.084,0.683,0.252,0.831c0.169,0.148,0.434,0.227,0.793,0.236v0.328h-3.137V41.229z M57.205,32.26
			c0.196,0,0.357,0.065,0.482,0.195s0.188,0.284,0.188,0.461s-0.063,0.331-0.191,0.458c-0.127,0.127-0.282,0.191-0.465,0.191
			c-0.178,0-0.33-0.062-0.457-0.188c-0.128-0.125-0.191-0.279-0.191-0.461c0-0.191,0.065-0.349,0.197-0.472
			C56.9,32.321,57.046,32.26,57.205,32.26z"/>
		<path fill="#4F0000" d="M59.406,35.821l1.771-0.725h0.287v2.254c0.656-0.877,1.195-1.472,1.619-1.785s0.825-0.469,1.203-0.469
			c0.771,0,1.156,0.495,1.156,1.483v3.582c0,0.406,0.082,0.683,0.249,0.831s0.432,0.227,0.796,0.236v0.328h-2.379v-0.328
			c0.191-0.009,0.287-0.121,0.287-0.334v-4.219c0-0.237-0.061-0.427-0.184-0.57c-0.123-0.144-0.283-0.215-0.479-0.215
			c-0.574,0-1.109,0.406-1.604,1.219s-0.742,1.744-0.742,2.796c0,0.532,0.082,0.884,0.246,1.055c0.164,0.17,0.456,0.26,0.875,0.27
			v0.328h-3.104v-0.328c0.367-0.009,0.631-0.089,0.791-0.239c0.161-0.15,0.242-0.426,0.242-0.827v-3.493
			c0-0.451-0.15-0.677-0.449-0.677c-0.108,0-0.303,0.057-0.584,0.171V35.821z"/>
		<path fill="#4F0000" d="M72.627,39.841c-1.016,1.276-2.007,1.914-2.973,1.914c-0.68,0-1.279-0.295-1.799-0.885
			s-0.779-1.291-0.779-2.102c0-0.934,0.309-1.776,0.927-2.526s1.346-1.125,2.185-1.125c0.674,0,1.209,0.239,1.605,0.718
			s0.606,1.062,0.629,1.75h-4.408C68.004,37.763,68,37.893,68,37.975c0,0.807,0.214,1.48,0.643,2.02
			c0.428,0.54,0.957,0.81,1.586,0.81c0.783,0,1.583-0.472,2.398-1.415V39.841z M71.301,37.243c-0.055-0.538-0.225-0.955-0.512-1.251
			s-0.627-0.444-1.02-0.444c-0.41,0-0.776,0.161-1.1,0.482c-0.324,0.321-0.522,0.726-0.596,1.213H71.301z"/>
		<path fill="#4F0000" d="M73.926,39.451c0.037,0.592,0.207,1.053,0.51,1.381s0.666,0.492,1.09,0.492
			c0.352,0,0.639-0.107,0.861-0.321c0.224-0.214,0.336-0.485,0.336-0.813c0-0.292-0.085-0.538-0.254-0.738
			c-0.173-0.196-0.512-0.454-1.018-0.772c-0.36-0.228-0.688-0.441-0.984-0.639c-0.297-0.198-0.502-0.4-0.615-0.605
			c-0.119-0.205-0.178-0.415-0.178-0.629c0-0.442,0.203-0.836,0.611-1.183s0.949-0.52,1.623-0.52c0.415,0,0.861,0.091,1.34,0.273
			v1.791h-0.492c-0.004-0.506-0.146-0.912-0.424-1.217c-0.277-0.305-0.597-0.458-0.957-0.458c-0.255,0-0.454,0.081-0.598,0.243
			s-0.215,0.352-0.215,0.571c0,0.246,0.082,0.458,0.246,0.636c0.159,0.182,0.48,0.424,0.963,0.725
			c0.83,0.524,1.35,0.893,1.559,1.107c0.21,0.219,0.314,0.508,0.314,0.868c0,0.57-0.252,1.064-0.755,1.483s-1.083,0.629-1.739,0.629
			c-0.488,0-1.051-0.137-1.689-0.41v-1.894H73.926z"/>
	</g>
	<path fill="#4F0000" stroke="#4F0000" stroke-linecap="round" stroke-miterlimit="10" d="M47.297,15.373
		c-0.041,1.176-0.649,7.136-3.527,9.812c-2.398,2.229-3.667,2.609-5.434,0.608c-2.433-2.757-1.136-6.285-0.893-6.893
		c0.244-0.608,1.893,1.271,5.596-0.487C46.201,16.914,47.297,15.373,47.297,15.373z"/>
</g>
<g id="Layer_2">
</g>
</svg>
